<?xml version="1.0" standalone="no"?>
<!DOCTYPE svg PUBLIC "-//W3C//DTD SVG 20010904//EN"
 "http://www.w3.org/TR/2001/REC-SVG-20010904/DTD/svg10.dtd">
<svg version="1.0" xmlns="http://www.w3.org/2000/svg"
 width="1280.000000pt" height="828.000000pt" viewBox="0 0 1280.000000 828.000000"
 preserveAspectRatio="xMidYMid meet">
<g transform="translate(0.000000,828.000000) scale(0.100000,-0.100000)"
fill="#000000" stroke="none">
<path d="M1689 8276 c-2 -2 -55 -11 -117 -20 -329 -48 -687 -218 -957 -454
-275 -240 -470 -583 -554 -974 -25 -114 -61 -420 -61 -513 0 -35 4 -97 10
-137 5 -40 14 -116 20 -168 91 -757 549 -1401 1335 -1873 324 -196 769 -382
1174 -493 69 -19 131 -41 136 -49 6 -8 25 -42 44 -75 100 -176 492 -475 871
-665 445 -223 921 -361 1585 -459 172 -25 262 -55 439 -143 198 -99 312 -184
364 -273 24 -40 27 -55 27 -136 0 -86 -2 -94 -43 -177 -30 -62 -64 -108 -119
-167 -190 -202 -341 -263 -853 -345 -580 -93 -746 -140 -918 -262 -34 -24 -81
-68 -103 -98 l-41 -54 33 -83 c80 -198 286 -321 719 -427 351 -85 1030 -175
1530 -201 113 -6 266 -15 341 -20 173 -13 416 -13 588 0 75 5 217 14 316 20
585 34 1116 148 1545 332 266 113 393 226 394 349 0 60 -26 95 -112 152 -245
161 -394 211 -901 297 -162 27 -332 59 -378 70 -280 66 -538 245 -634 438 -30
60 -33 76 -34 152 0 76 3 92 32 151 56 113 177 220 342 303 143 73 217 95 401
121 170 25 449 73 461 80 3 2 243 -1 535 -7 877 -18 1451 14 1962 112 236 45
640 156 805 221 338 134 568 328 735 622 77 135 181 409 168 443 -4 11 -28 14
-98 14 -254 0 -938 43 -1368 86 -206 20 -554 62 -572 69 -7 3 -21 28 -31 55
-89 249 -580 638 -1119 886 -152 70 -430 176 -578 219 -88 26 -99 33 -142 81
-88 97 -197 149 -508 246 -777 241 -1142 510 -1216 894 -8 42 -14 102 -14 135
l0 58 63 43 c171 116 265 284 255 457 -6 97 -40 165 -120 243 -181 174 -670
298 -930 235 -367 -89 -608 -348 -558 -600 24 -123 121 -255 251 -341 67 -44
72 -57 57 -176 -20 -169 -88 -301 -222 -436 -197 -196 -442 -326 -881 -465
-314 -100 -473 -172 -604 -275 -69 -54 -97 -88 -93 -110 4 -20 -20 -30 -158
-74 -268 -83 -723 -256 -873 -330 -43 -22 -115 -65 -160 -96 -105 -73 -299
-270 -357 -362 -29 -46 -54 -74 -70 -79 -46 -15 -349 -8 -457 10 -518 87 -937
301 -1273 653 -441 461 -635 1088 -544 1757 78 570 434 1066 904 1260 471 195
998 71 1412 -331 407 -395 649 -964 625 -1467 -9 -200 -59 -387 -157 -590
-186 -387 -460 -587 -805 -587 -400 0 -746 293 -819 692 -28 156 -39 292 -33
425 14 358 129 548 354 587 85 14 135 3 187 -43 74 -64 87 -176 56 -482 -24
-248 -22 -294 21 -385 53 -110 149 -162 300 -162 97 0 187 27 267 80 109 73
156 159 155 285 0 139 -38 208 -217 395 -64 67 -105 121 -139 182 -118 216
-267 340 -492 412 -153 48 -257 57 -378 31 -231 -49 -397 -251 -475 -579 -25
-102 -27 -128 -26 -326 0 -275 28 -422 115 -618 74 -165 243 -366 394 -469
380 -257 920 -288 1371 -78 469 218 763 653 825 1217 26 230 -13 531 -96 754
-92 245 -225 435 -476 679 -394 384 -847 632 -1278 700 -53 9 -120 20 -150 25
-53 10 -204 14 -212 6z"/>
<path d="M12283 5289 c-16 -85 -67 -187 -168 -336 -135 -198 -175 -294 -175
-415 0 -90 23 -140 95 -203 72 -64 91 -67 161 -28 65 37 115 90 157 171 75
142 102 316 73 478 -14 85 -105 367 -123 385 -5 5 -14 -19 -20 -52z"/>
</g>
</svg>
